<svg width="1920" height="1080" viewBox="0 0 1920 1080" fill="none" xmlns="http://www.w3.org/2000/svg">
<g clip-path="url(#clip0_14_156)">
<rect width="1920" height="1080" fill="black"/>
<path d="M140.48 149.48H112.16V139.52H180.2V149.48H151.88V224H140.48V149.48ZM200.185 187.64V224H189.145V134.96H199.945V171.92H200.065C203.665 164.12 211.105 160.28 219.985 160.28C232.945 160.28 243.145 168.92 243.145 185.24V224H232.105V186.2C232.105 175.04 225.025 169.64 216.745 169.64C208.105 169.64 200.185 175.4 200.185 187.64ZM283.176 225.68C263.616 225.68 253.056 211.28 253.056 192.92C253.056 174.44 264.216 160.28 283.056 160.28C301.296 160.28 311.616 173.6 311.616 191V195.44H264.216V195.8C264.216 208.88 272.376 217.04 283.296 217.04C292.896 217.04 298.296 211.4 299.256 206H310.416C308.136 217.52 298.056 225.68 283.176 225.68ZM283.056 168.8C273.216 168.8 265.296 175.76 264.336 187.52H300.456C300.216 175.64 293.016 168.8 283.056 168.8ZM353.109 151.4H352.509C348.189 151.4 344.949 148.04 344.949 143.96C344.949 139.64 348.189 136.52 352.509 136.52H353.109C357.429 136.52 360.669 139.64 360.669 143.96C360.669 148.04 357.429 151.4 353.109 151.4ZM337.389 170.96V161.96H358.269V224H347.229V170.96H337.389ZM382.997 187.64V224H371.957V161.96H382.397V172.52H382.517C386.117 164.24 393.677 160.28 402.797 160.28C415.757 160.28 425.957 168.92 425.957 185.24V224H414.917V186.2C414.917 175.04 407.837 169.64 399.557 169.64C390.917 169.64 382.997 175.4 382.997 187.64ZM431.362 161.96H445.642V143.36H456.682V161.96H476.962V171.08H456.682V208.52C456.682 212.96 458.482 214.88 462.922 214.88H477.082V224H460.882C450.322 224 445.642 219.08 445.642 209.24V171.08H431.362V161.96ZM512.278 225.68C492.718 225.68 482.158 211.28 482.158 192.92C482.158 174.44 493.318 160.28 512.158 160.28C530.398 160.28 540.718 173.6 540.718 191V195.44H493.318V195.8C493.318 208.88 501.478 217.04 512.398 217.04C521.998 217.04 527.398 211.4 528.358 206H539.518C537.238 217.52 527.158 225.68 512.278 225.68ZM512.158 168.8C502.318 168.8 494.398 175.76 493.438 187.52H529.558C529.318 175.64 522.118 168.8 512.158 168.8ZM551.254 224V161.96H561.814V172.4H561.934C563.854 166.88 568.894 161.6 579.454 161.6H587.854V171.8H577.414C565.654 171.8 562.294 178.88 562.294 188V224H551.254ZM607.06 187.64V224H596.02V161.96H606.46V172.52H606.58C610.18 164.24 617.74 160.28 626.86 160.28C639.82 160.28 650.02 168.92 650.02 185.24V224H638.98V186.2C638.98 175.04 631.9 169.64 623.62 169.64C614.98 169.64 607.06 175.4 607.06 187.64ZM690.051 225.68C670.491 225.68 659.931 211.28 659.931 192.92C659.931 174.44 671.091 160.28 689.931 160.28C708.171 160.28 718.491 173.6 718.491 191V195.44H671.091V195.8C671.091 208.88 679.251 217.04 690.171 217.04C699.771 217.04 705.171 211.4 706.131 206H717.291C715.011 217.52 704.931 225.68 690.051 225.68ZM689.931 168.8C680.091 168.8 672.171 175.76 671.211 187.52H707.331C707.091 175.64 699.891 168.8 689.931 168.8ZM721.401 161.96H735.681V143.36H746.721V161.96H767.001V171.08H746.721V208.52C746.721 212.96 748.521 214.88 752.961 214.88H767.121V224H750.921C740.361 224 735.681 219.08 735.681 209.24V171.08H721.401V161.96ZM774.454 185.6H807.454V194.6H774.454V185.6ZM830.302 187.64V224H819.262V161.96H829.702V172.52H829.822C833.422 164.24 840.982 160.28 850.102 160.28C863.062 160.28 873.262 168.92 873.262 185.24V224H862.222V186.2C862.222 175.04 855.142 169.64 846.862 169.64C838.222 169.64 830.302 175.4 830.302 187.64ZM884.973 179.24C886.053 168.08 894.813 160.28 910.413 160.28C924.573 160.28 934.653 166.88 934.653 180.92V210.32C934.653 214.16 936.213 215.12 939.213 215.12H943.053V224H935.973C928.173 224 925.053 220.52 925.173 213.92V212.72H925.053C922.053 220.4 914.373 225.68 903.933 225.68C891.693 225.68 882.693 218.96 882.693 207.32C882.693 195.92 891.333 190.16 904.413 188.12L913.773 186.56C920.133 185.48 923.373 183.44 923.373 178.64C923.373 173.72 920.013 168.68 910.173 168.68C901.293 168.68 896.493 172.64 895.893 179.24H884.973ZM923.733 198.2V190.04C922.533 191.72 919.773 193.4 915.453 194.12L906.333 195.68C898.413 197 893.493 200.24 893.493 206.24V206.96C893.493 213.44 898.533 217.04 905.973 217.04C916.413 217.04 923.733 209.48 923.733 198.2ZM941.245 161.96H955.525V143.36H966.565V161.96H986.845V171.08H966.565V208.52C966.565 212.96 968.365 214.88 972.805 214.88H986.965V224H970.765C960.205 224 955.525 219.08 955.525 209.24V171.08H941.245V161.96ZM1007.6 151.4H1007C1002.68 151.4 999.441 148.04 999.441 143.96C999.441 139.64 1002.68 136.52 1007 136.52H1007.6C1011.92 136.52 1015.16 139.64 1015.16 143.96C1015.16 148.04 1011.92 151.4 1007.6 151.4ZM991.881 170.96V161.96H1012.76V224H1001.72V170.96H991.881ZM1080.21 161.96L1056.33 224.12H1044.81L1020.33 161.96H1032.45L1050.69 211.16H1050.81L1068.93 161.96H1080.21ZM1111.81 225.68C1092.25 225.68 1081.69 211.28 1081.69 192.92C1081.69 174.44 1092.85 160.28 1111.69 160.28C1129.93 160.28 1140.25 173.6 1140.25 191V195.44H1092.85V195.8C1092.85 208.88 1101.01 217.04 1111.93 217.04C1121.53 217.04 1126.93 211.4 1127.89 206H1139.05C1136.77 217.52 1126.69 225.68 1111.81 225.68ZM1111.69 168.8C1101.85 168.8 1093.93 175.76 1092.97 187.52H1129.09C1128.85 175.64 1121.65 168.8 1111.69 168.8ZM116.84 293.96H127.4V305.72H127.52C131.24 297.32 138.56 292.28 149 292.28C166.4 292.28 176.48 306.56 176.48 324.92C176.48 343.4 166.16 357.68 149 357.68C139.04 357.68 131.84 352.88 128 344.96H127.88V379.04H116.84V293.96ZM165.32 322.64C165.32 309.2 156.92 301.4 146.6 301.4C136.28 301.4 127.88 309.56 127.88 322.64V327.2C127.88 340.28 136.28 348.44 146.6 348.44C156.92 348.44 165.32 340.52 165.32 327.2V322.64ZM185.129 311.24C186.209 300.08 194.969 292.28 210.569 292.28C224.729 292.28 234.809 298.88 234.809 312.92V342.32C234.809 346.16 236.369 347.12 239.369 347.12H243.209V356H236.129C228.329 356 225.209 352.52 225.329 345.92V344.72H225.209C222.209 352.4 214.529 357.68 204.089 357.68C191.849 357.68 182.849 350.96 182.849 339.32C182.849 327.92 191.489 322.16 204.569 320.12L213.929 318.56C220.289 317.48 223.529 315.44 223.529 310.64C223.529 305.72 220.169 300.68 210.329 300.68C201.449 300.68 196.649 304.64 196.049 311.24H185.129ZM223.889 330.2V322.04C222.689 323.72 219.929 325.4 215.609 326.12L206.489 327.68C198.569 329 193.649 332.24 193.649 338.24V338.96C193.649 345.44 198.689 349.04 206.129 349.04C216.569 349.04 223.889 341.48 223.889 330.2ZM273.327 362.96C268.887 374.48 263.847 379.04 251.487 379.04H240.807V369.8H251.127C257.607 369.8 259.527 368.36 262.287 361.4L265.047 354.32L240.447 293.96H252.567L270.927 341.6H271.047L288.927 293.96H300.207L273.327 362.96ZM307.738 356V293.96H318.178V303.44H318.298C321.538 296 328.498 292.28 336.898 292.28C346.018 292.28 353.458 296.6 356.698 305.12H356.818C360.298 296.48 367.978 292.28 376.858 292.28C389.098 292.28 398.698 300.56 398.698 315.68V356H387.658V316.64C387.658 306.56 381.178 301.64 373.738 301.64C365.818 301.64 358.738 306.92 358.738 318.08V356H347.698V316.64C347.698 306.56 341.218 301.64 333.778 301.64C325.858 301.64 318.778 306.92 318.778 318.08V356H307.738ZM438.684 357.68C419.124 357.68 408.564 343.28 408.564 324.92C408.564 306.44 419.724 292.28 438.564 292.28C456.804 292.28 467.124 305.6 467.124 323V327.44H419.724V327.8C419.724 340.88 427.884 349.04 438.804 349.04C448.404 349.04 453.804 343.4 454.764 338H465.924C463.644 349.52 453.564 357.68 438.684 357.68ZM438.564 300.8C428.724 300.8 420.804 307.76 419.844 319.52H455.964C455.724 307.64 448.524 300.8 438.564 300.8ZM488.7 319.64V356H477.66V293.96H488.1V304.52H488.22C491.82 296.24 499.38 292.28 508.5 292.28C521.46 292.28 531.66 300.92 531.66 317.24V356H520.62V318.2C520.62 307.04 513.54 301.64 505.26 301.64C496.62 301.64 488.7 307.4 488.7 319.64ZM537.065 293.96H551.345V275.36H562.385V293.96H582.665V303.08H562.385V340.52C562.385 344.96 564.185 346.88 568.625 346.88H582.785V356H566.585C556.025 356 551.345 351.08 551.345 341.24V303.08H537.065V293.96ZM612.778 293.96H623.338V305.72H623.458C627.178 297.32 634.498 292.28 644.938 292.28C662.338 292.28 672.418 306.56 672.418 324.92C672.418 343.4 662.098 357.68 644.938 357.68C634.978 357.68 627.778 352.88 623.938 344.96H623.818V379.04H612.778V293.96ZM661.258 322.64C661.258 309.2 652.858 301.4 642.538 301.4C632.218 301.4 623.818 309.56 623.818 322.64V327.2C623.818 340.28 632.218 348.44 642.538 348.44C652.858 348.44 661.258 340.52 661.258 327.2V322.64ZM682.973 356V293.96H693.533V304.4H693.653C695.573 298.88 700.613 293.6 711.173 293.6H719.573V303.8H709.133C697.373 303.8 694.013 310.88 694.013 320V356H682.973ZM752.16 357.68C732.96 357.68 722.04 343.28 722.04 324.92C722.04 306.56 733.32 292.28 752.16 292.28C771.12 292.28 782.28 306.56 782.28 324.92C782.28 343.28 771.36 357.68 752.16 357.68ZM771.24 327.2V322.64C771.24 309.32 762.6 301.52 752.16 301.52C741.72 301.52 733.2 309.56 733.2 322.64V327.2C733.2 340.16 741.72 348.44 752.16 348.44C762.6 348.44 771.24 340.64 771.24 327.2ZM785.151 293.96H799.431V275.36H810.471V293.96H830.751V303.08H810.471V340.52C810.471 344.96 812.271 346.88 816.711 346.88H830.871V356H814.671C804.111 356 799.431 351.08 799.431 341.24V303.08H785.151V293.96ZM866.067 357.68C846.867 357.68 835.947 343.28 835.947 324.92C835.947 306.56 847.227 292.28 866.067 292.28C885.027 292.28 896.187 306.56 896.187 324.92C896.187 343.28 885.267 357.68 866.067 357.68ZM885.147 327.2V322.64C885.147 309.32 876.507 301.52 866.067 301.52C855.627 301.52 847.107 309.56 847.107 322.64V327.2C847.107 340.16 855.627 348.44 866.067 348.44C876.507 348.44 885.147 340.64 885.147 327.2ZM914.721 322.64V327.32C914.721 340.28 923.001 348.44 933.561 348.44C942.441 348.44 947.721 343.04 949.401 336.32H960.321C957.801 349.16 948.201 357.68 933.561 357.68C914.361 357.68 903.681 343.52 903.681 324.92C903.681 306.2 914.601 292.28 933.561 292.28C948.321 292.28 958.041 300.68 960.201 313.28H949.281C947.721 306.92 942.681 301.52 933.561 301.52C923.001 301.52 914.721 309.56 914.721 322.64ZM997.551 357.68C978.351 357.68 967.431 343.28 967.431 324.92C967.431 306.56 978.711 292.28 997.551 292.28C1016.51 292.28 1027.67 306.56 1027.67 324.92C1027.67 343.28 1016.75 357.68 997.551 357.68ZM1016.63 327.2V322.64C1016.63 309.32 1007.99 301.52 997.551 301.52C987.111 301.52 978.591 309.56 978.591 322.64V327.2C978.591 340.16 987.111 348.44 997.551 348.44C1007.99 348.44 1016.63 340.64 1016.63 327.2ZM1038.29 341.24V266.96H1049.33V339.92C1049.33 344.72 1051.25 346.76 1056.05 346.76H1067.09V356H1053.53C1042.97 356 1038.29 351.08 1038.29 341.24Z" fill="white"/>
<path d="M-19.4559 659.185C-19.4559 618.766 13.3409 586 53.7978 586H714.209C754.664 586 787.463 618.766 787.463 659.185V1006.81C787.463 1047.23 754.664 1080 714.209 1080H53.7978C13.3409 1080 -19.4559 1047.23 -19.4559 1006.81V659.185Z" fill="black"/>
<path d="M224.907 881.79C197.874 881.79 175.979 859.957 175.979 833C175.979 806.044 197.874 784.21 224.907 784.21C249.126 784.21 269.227 801.815 273.101 824.869H322.395C318.236 774.777 276.199 735.42 224.907 735.42C170.882 735.42 127.052 779.128 127.052 833C127.052 886.872 170.882 930.58 224.907 930.58C276.199 930.58 318.236 891.223 322.395 841.132H273.101C269.227 864.185 249.126 881.79 224.907 881.79Z" fill="white"/>
<path fill-rule="evenodd" clip-rule="evenodd" d="M546.532 791.601C564.099 791.602 574.777 802.849 574.777 821.088V845.977C574.777 864.675 563.984 875.69 546.532 875.691C529.078 875.691 518.167 864.677 518.167 845.977V821.088C518.167 802.848 528.964 791.601 546.532 791.601ZM546.532 801.124C535.393 801.124 528.964 808.927 528.964 821.201V845.977C528.964 858.481 535.393 866.168 546.532 866.168C557.553 866.167 563.981 858.481 563.981 845.977V821.201C563.981 808.927 557.668 801.125 546.532 801.124Z" fill="white"/>
<path d="M412.263 836.115H412.49L427.99 814.775H439.936L418.576 843.572L441.081 874.083H428.794L412.144 851.142H412.031L395.381 874.083H383.44L405.831 843.798L384.59 814.775H396.877L412.263 836.115Z" fill="white"/>
<path fill-rule="evenodd" clip-rule="evenodd" d="M494.327 844.834H507.532V853.893H494.327V874.083H483.651V853.893H444.377V845.293L481.814 793.322H494.327V844.834ZM455.06 844.721V844.834H483.651V805.371H483.538L455.06 844.721Z" fill="white"/>
<path d="M613.968 791.601C629.583 791.601 639.46 801.354 639.46 814.203C639.46 823.151 635.669 830.492 624.071 838.407L608.224 849.074C601.222 854.007 598.121 857.911 598.121 864.22V864.905H640.956V874.083H587.56V864.566C587.56 854.47 592.499 847.928 603.401 840.701L618.333 830.725C626.598 825.104 628.668 820.394 628.668 815.347V813.857C628.668 806.401 623.839 800.439 613.968 800.439C604.323 800.44 598.237 806.175 598.121 816.27H587.56C587.786 800.784 598.927 791.601 613.968 791.601Z" fill="white"/>
<rect x="1560" width="362" height="718" fill="url(#paint0_linear_14_156)"/>
<rect x="1196" y="356" width="362" height="724" fill="url(#paint1_linear_14_156)"/>
<path d="M1558.5 356C1511.03 356 1464.02 365.363 1420.16 383.556C1376.3 401.748 1336.45 428.412 1302.88 462.027C1269.31 495.642 1242.68 535.549 1224.52 579.469C1206.35 623.388 1197 670.461 1197 718C1197 765.539 1206.35 812.612 1224.52 856.531C1242.68 900.451 1269.31 940.358 1302.88 973.973C1336.45 1007.59 1376.3 1034.25 1420.16 1052.44C1464.02 1070.64 1511.03 1080 1558.5 1080L1558.5 718L1558.5 356Z" fill="url(#paint2_radial_14_156)"/>
<path d="M1922.5 718C1875.03 718 1828.02 727.363 1784.16 745.556C1740.3 763.748 1700.45 790.412 1666.88 824.027C1633.31 857.642 1606.68 897.549 1588.52 941.469C1570.35 985.388 1561 1032.46 1561 1080L1922.5 1080L1922.5 718Z" fill="url(#paint3_radial_14_156)"/>
<path d="M1196.5 356C1243.97 356 1290.98 346.637 1334.84 328.444C1378.7 310.252 1418.55 283.588 1452.12 249.973C1485.69 216.358 1512.32 176.451 1530.48 132.531C1548.65 88.6116 1558 41.5385 1558 -5.99999L1196.5 -5.99999L1196.5 356Z" fill="url(#paint4_linear_14_156)"/>
<path d="M1921 717.5C1921 670.027 1911.64 623.019 1893.44 579.16C1875.25 535.301 1848.59 495.449 1814.97 461.881C1781.36 428.313 1741.45 401.685 1697.53 383.518C1653.61 365.35 1606.54 356 1559 356L1559 717.5H1921Z" fill="black"/>
</g>
<defs>
<linearGradient id="paint0_linear_14_156" x1="1741" y1="0" x2="1741" y2="718" gradientUnits="userSpaceOnUse">
<stop stop-color="#0052FF"/>
<stop offset="1"/>
</linearGradient>
<linearGradient id="paint1_linear_14_156" x1="1377" y1="356" x2="1377" y2="1080" gradientUnits="userSpaceOnUse">
<stop stop-color="#0052FF"/>
<stop offset="1" stop-color="#003199"/>
</linearGradient>
<radialGradient id="paint2_radial_14_156" cx="0" cy="0" r="1" gradientUnits="userSpaceOnUse" gradientTransform="translate(1558.5 718) rotate(90) scale(362 361.5)">
<stop stop-color="#014FF5"/>
<stop offset="1"/>
</radialGradient>
<radialGradient id="paint3_radial_14_156" cx="0" cy="0" r="1" gradientUnits="userSpaceOnUse" gradientTransform="translate(1922.5 1080) rotate(90) scale(362 361.5)">
<stop/>
<stop offset="1" stop-color="#014BE8"/>
</radialGradient>
<linearGradient id="paint4_linear_14_156" x1="1196.5" y1="-368" x2="1196.5" y2="356" gradientUnits="userSpaceOnUse">
<stop/>
<stop offset="1" stop-color="#0145D7"/>
</linearGradient>
<clipPath id="clip0_14_156">
<rect width="1920" height="1080" fill="white"/>
</clipPath>
</defs>
</svg>
